solid airToSolid
 facet normal  0.000000e+00  1.000000e+00  0.000000e+00
   outer loop
     vertex  0.000000e+00  7.500000e-02  0.000000e+00
     vertex  2.500000e-02  7.500000e-02  1.000000e-03
     vertex  2.500000e-02  7.500000e-02  0.000000e+00
   endloop
 endfacet
 facet normal  0.000000e+00  1.000000e+00  0.000000e+00
   outer loop
     vertex  0.000000e+00  7.500000e-02  0.000000e+00
     vertex  0.000000e+00  7.500000e-02  1.000000e-03
     vertex  2.500000e-02  7.500000e-02  1.000000e-03
   endloop
 endfacet
 facet normal  1.000000e+00  0.000000e+00  0.000000e+00
   outer loop
     vertex  2.500000e-02  7.500000e-02  0.000000e+00
     vertex  2.500000e-02  0.000000e+00  1.000000e-03
     vertex  2.500000e-02  0.000000e+00  0.000000e+00
   endloop
 endfacet
 facet normal  1.000000e+00  0.000000e+00 -0.000000e+00
   outer loop
     vertex  2.500000e-02  7.500000e-02  0.000000e+00
     vertex  2.500000e-02  7.500000e-02  1.000000e-03
     vertex  2.500000e-02  0.000000e+00  1.000000e-03
   endloop
 endfacet
 facet normal  9.841833e-01 -1.771530e-01  0.000000e+00
   outer loop
     vertex  6.250000e-03  1.875000e-02  0.000000e+00
     vertex  1.300000e-02  5.625000e-02  0.000000e+00
     vertex  1.300000e-02  5.625000e-02  1.000000e-03
   endloop
 endfacet
 facet normal  9.841833e-01 -1.771530e-01  0.000000e+00
   outer loop
     vertex  6.250000e-03  1.875000e-02  0.000000e+00
     vertex  1.300000e-02  5.625000e-02  1.000000e-03
     vertex  6.250000e-03  1.875000e-02  1.000000e-03
   endloop
 endfacet
 facet normal -9.884478e-01 -1.515620e-01  0.000000e+00
   outer loop
     vertex  1.300000e-02  5.625000e-02  0.000000e+00
     vertex  1.875000e-02  1.875000e-02  0.000000e+00
     vertex  1.875000e-02  1.875000e-02  1.000000e-03
   endloop
 endfacet
 facet normal -9.884478e-01 -1.515620e-01  0.000000e+00
   outer loop
     vertex  1.300000e-02  5.625000e-02  0.000000e+00
     vertex  1.875000e-02  1.875000e-02  1.000000e-03
     vertex  1.300000e-02  5.625000e-02  1.000000e-03
   endloop
 endfacet
 facet normal  0.000000e+00 -0.000000e+00 -1.000000e+00
   outer loop
     vertex  6.250000e-03  1.875000e-02  0.000000e+00
     vertex  2.500000e-02  0.000000e+00  0.000000e+00
     vertex  0.000000e+00  0.000000e+00  0.000000e+00
   endloop
 endfacet
 facet normal -0.000000e+00 -0.000000e+00 -1.000000e+00
   outer loop
     vertex  1.875000e-02  1.875000e-02  0.000000e+00
     vertex  2.500000e-02  0.000000e+00  0.000000e+00
     vertex  6.250000e-03  1.875000e-02  0.000000e+00
   endloop
 endfacet
 facet normal  0.000000e+00  0.000000e+00 -1.000000e+00
   outer loop
     vertex  0.000000e+00  7.500000e-02  0.000000e+00
     vertex  1.300000e-02  5.625000e-02  0.000000e+00
     vertex  6.250000e-03  1.875000e-02  0.000000e+00
   endloop
 endfacet
 facet normal  0.000000e+00  0.000000e+00 -1.000000e+00
   outer loop
     vertex  2.500000e-02  7.500000e-02  0.000000e+00
     vertex  1.875000e-02  1.875000e-02  0.000000e+00
     vertex  1.300000e-02  5.625000e-02  0.000000e+00
   endloop
 endfacet
 facet normal -0.000000e+00  0.000000e+00 -1.000000e+00
   outer loop
     vertex  2.500000e-02  7.500000e-02  0.000000e+00
     vertex  1.300000e-02  5.625000e-02  0.000000e+00
     vertex  0.000000e+00  7.500000e-02  0.000000e+00
   endloop
 endfacet
 facet normal  0.000000e+00  0.000000e+00 -1.000000e+00
   outer loop
     vertex  2.500000e-02  0.000000e+00  0.000000e+00
     vertex  1.875000e-02  1.875000e-02  0.000000e+00
     vertex  2.500000e-02  7.500000e-02  0.000000e+00
   endloop
 endfacet
 facet normal  0.000000e+00  0.000000e+00 -1.000000e+00
   outer loop
     vertex  0.000000e+00  7.500000e-02  0.000000e+00
     vertex  6.250000e-03  1.875000e-02  0.000000e+00
     vertex  0.000000e+00  0.000000e+00  0.000000e+00
   endloop
 endfacet
 facet normal  0.000000e+00  0.000000e+00  1.000000e+00
   outer loop
     vertex  6.250000e-03  1.875000e-02  1.000000e-03
     vertex  0.000000e+00  0.000000e+00  1.000000e-03
     vertex  2.500000e-02  0.000000e+00  1.000000e-03
   endloop
 endfacet
 facet normal  0.000000e+00  0.000000e+00  1.000000e+00
   outer loop
     vertex  1.875000e-02  1.875000e-02  1.000000e-03
     vertex  6.250000e-03  1.875000e-02  1.000000e-03
     vertex  2.500000e-02  0.000000e+00  1.000000e-03
   endloop
 endfacet
 facet normal  0.000000e+00  0.000000e+00  1.000000e+00
   outer loop
     vertex  0.000000e+00  7.500000e-02  1.000000e-03
     vertex  6.250000e-03  1.875000e-02  1.000000e-03
     vertex  1.300000e-02  5.625000e-02  1.000000e-03
   endloop
 endfacet
 facet normal  0.000000e+00  0.000000e+00  1.000000e+00
   outer loop
     vertex  2.500000e-02  7.500000e-02  1.000000e-03
     vertex  1.300000e-02  5.625000e-02  1.000000e-03
     vertex  1.875000e-02  1.875000e-02  1.000000e-03
   endloop
 endfacet
 facet normal  0.000000e+00  0.000000e+00  1.000000e+00
   outer loop
     vertex  2.500000e-02  7.500000e-02  1.000000e-03
     vertex  0.000000e+00  7.500000e-02  1.000000e-03
     vertex  1.300000e-02  5.625000e-02  1.000000e-03
   endloop
 endfacet
 facet normal  0.000000e+00 -0.000000e+00  1.000000e+00
   outer loop
     vertex  2.500000e-02  0.000000e+00  1.000000e-03
     vertex  2.500000e-02  7.500000e-02  1.000000e-03
     vertex  1.875000e-02  1.875000e-02  1.000000e-03
   endloop
 endfacet
 facet normal  0.000000e+00  0.000000e+00  1.000000e+00
   outer loop
     vertex  0.000000e+00  7.500000e-02  1.000000e-03
     vertex  0.000000e+00  0.000000e+00  1.000000e-03
     vertex  6.250000e-03  1.875000e-02  1.000000e-03
   endloop
 endfacet
 facet normal  0.000000e+00 -1.000000e+00  0.000000e+00
   outer loop
     vertex  2.500000e-02  0.000000e+00  0.000000e+00
     vertex  0.000000e+00  0.000000e+00  1.000000e-03
     vertex  0.000000e+00  0.000000e+00  0.000000e+00
   endloop
 endfacet
 facet normal  0.000000e+00 -1.000000e+00  0.000000e+00
   outer loop
     vertex  2.500000e-02  0.000000e+00  0.000000e+00
     vertex  2.500000e-02  0.000000e+00  1.000000e-03
     vertex  0.000000e+00  0.000000e+00  1.000000e-03
   endloop
 endfacet
 facet normal -1.000000e+00  0.000000e+00  0.000000e+00
   outer loop
     vertex  0.000000e+00  0.000000e+00  0.000000e+00
     vertex  0.000000e+00  7.500000e-02  1.000000e-03
     vertex  0.000000e+00  7.500000e-02  0.000000e+00
   endloop
 endfacet
 facet normal -1.000000e+00  0.000000e+00  0.000000e+00
   outer loop
     vertex  0.000000e+00  0.000000e+00  0.000000e+00
     vertex  0.000000e+00  0.000000e+00  1.000000e-03
     vertex  0.000000e+00  7.500000e-02  1.000000e-03
   endloop
 endfacet
 facet normal  0.000000e+00  1.000000e+00  0.000000e+00
   outer loop
     vertex  1.875000e-02  1.875000e-02  0.000000e+00
     vertex  6.250000e-03  1.875000e-02  0.000000e+00
     vertex  6.250000e-03  1.875000e-02  1.000000e-03
   endloop
 endfacet
 facet normal  0.000000e+00  1.000000e+00 -0.000000e+00
   outer loop
     vertex  1.875000e-02  1.875000e-02  0.000000e+00
     vertex  6.250000e-03  1.875000e-02  1.000000e-03
     vertex  1.875000e-02  1.875000e-02  1.000000e-03
   endloop
 endfacet
endsolid airToSolid
