solid placa
facet normal 0.000000 -1.000000 0.000000
outer loop
vertex 0.000000 0.000000 0.000000
vertex 25.000000 0.000000 0.000000
vertex 0.000000 0.000000 1.000000
endloop
endfacet
facet normal 0.000000 -1.000000 0.000000
outer loop
vertex 0.000000 0.000000 1.000000
vertex 25.000000 0.000000 0.000000
vertex 25.000000 0.000000 1.000000
endloop
endfacet
facet normal -1.000000 0.000000 0.000000
outer loop
vertex 0.000000 75.000000 0.000000
vertex 0.000000 0.000000 1.000000
vertex 0.000000 75.000000 1.000000
endloop
endfacet
facet normal -1.000000 0.000000 0.000000
outer loop
vertex 0.000000 75.000000 0.000000
vertex 0.000000 0.000000 0.000000
vertex 0.000000 0.000000 1.000000
endloop
endfacet
facet normal 1.000000 0.000000 0.000000
outer loop
vertex 25.000000 0.000000 0.000000
vertex 25.000000 75.000000 1.000000
vertex 25.000000 0.000000 1.000000
endloop
endfacet
facet normal 1.000000 0.000000 0.000000
outer loop
vertex 25.000000 0.000000 0.000000
vertex 25.000000 75.000000 0.000000
vertex 25.000000 75.000000 1.000000
endloop
endfacet
facet normal 0.000000 0.000000 -1.000000
outer loop
vertex 0.000000 0.000000 0.000000
vertex 15.625000 28.125000 0.000000
vertex 25.000000 0.000000 0.000000
endloop
endfacet
facet normal 0.000000 0.000000 -1.000000
outer loop
vertex 9.375000 28.125000 0.000000
vertex 15.625000 28.125000 0.000000
vertex 0.000000 0.000000 0.000000
endloop
endfacet
facet normal 0.000000 0.000000 -1.000000
outer loop
vertex 9.375000 28.125000 0.000000
vertex 0.000000 75.000000 0.000000
vertex 12.500000 46.875000 0.000000
endloop
endfacet
facet normal 0.000000 0.000000 -1.000000
outer loop
vertex 12.500000 46.875000 0.000000
vertex 25.000000 75.000000 0.000000
vertex 15.625000 28.125000 0.000000
endloop
endfacet
facet normal 0.000000 0.000000 -1.000000
outer loop
vertex 0.000000 75.000000 0.000000
vertex 25.000000 75.000000 0.000000
vertex 12.500000 46.875000 0.000000
endloop
endfacet
facet normal 0.000000 0.000000 -1.000000
outer loop
vertex 25.000000 75.000000 0.000000
vertex 25.000000 0.000000 0.000000
vertex 15.625000 28.125000 0.000000
endloop
endfacet
facet normal 0.000000 0.000000 -1.000000
outer loop
vertex 0.000000 0.000000 0.000000
vertex 0.000000 75.000000 0.000000
vertex 9.375000 28.125000 0.000000
endloop
endfacet
facet normal 0.000000 0.000000 1.000000
outer loop
vertex 15.625000 28.125000 1.000000
vertex 0.000000 0.000000 1.000000
vertex 25.000000 0.000000 1.000000
endloop
endfacet
facet normal 0.000000 0.000000 1.000000
outer loop
vertex 15.625000 28.125000 1.000000
vertex 9.375000 28.125000 1.000000
vertex 0.000000 0.000000 1.000000
endloop
endfacet
facet normal 0.000000 0.000000 1.000000
outer loop
vertex 0.000000 75.000000 1.000000
vertex 9.375000 28.125000 1.000000
vertex 12.500000 46.875000 1.000000
endloop
endfacet
facet normal 0.000000 0.000000 1.000000
outer loop
vertex 25.000000 75.000000 1.000000
vertex 12.500000 46.875000 1.000000
vertex 15.625000 28.125000 1.000000
endloop
endfacet
facet normal 0.000000 0.000000 1.000000
outer loop
vertex 25.000000 75.000000 1.000000
vertex 0.000000 75.000000 1.000000
vertex 12.500000 46.875000 1.000000
endloop
endfacet
facet normal 0.000000 0.000000 1.000000
outer loop
vertex 25.000000 0.000000 1.000000
vertex 25.000000 75.000000 1.000000
vertex 15.625000 28.125000 1.000000
endloop
endfacet
facet normal 0.000000 0.000000 1.000000
outer loop
vertex 0.000000 75.000000 1.000000
vertex 0.000000 0.000000 1.000000
vertex 9.375000 28.125000 1.000000
endloop
endfacet
facet normal 0.000000 1.000000 0.000000
outer loop
vertex 25.000000 75.000000 0.000000
vertex 0.000000 75.000000 0.000000
vertex 25.000000 75.000000 1.000000
endloop
endfacet
facet normal 0.000000 1.000000 0.000000
outer loop
vertex 25.000000 75.000000 1.000000
vertex 0.000000 75.000000 0.000000
vertex 0.000000 75.000000 1.000000
endloop
endfacet
facet normal 0.000000 1.000000 0.000000
outer loop
vertex 15.625000 28.125000 0.000000
vertex 9.375000 28.125000 0.000000
vertex 9.375000 28.125000 1.000000
endloop
endfacet
facet normal 0.000000 1.000000 0.000000
outer loop
vertex 15.625000 28.125000 0.000000
vertex 9.375000 28.125000 1.000000
vertex 15.625000 28.125000 1.000000
endloop
endfacet
facet normal -0.986394 -0.164399 0.000000
outer loop
vertex 12.500000 46.875000 0.000000
vertex 15.625000 28.125000 0.000000
vertex 15.625000 28.125000 1.000000
endloop
endfacet
facet normal -0.986394 -0.164399 0.000000
outer loop
vertex 12.500000 46.875000 0.000000
vertex 15.625000 28.125000 1.000000
vertex 12.500000 46.875000 1.000000
endloop
endfacet
facet normal 0.986394 -0.164399 0.000000
outer loop
vertex 9.375000 28.125000 0.000000
vertex 12.500000 46.875000 0.000000
vertex 12.500000 46.875000 1.000000
endloop
endfacet
facet normal 0.986394 -0.164399 0.000000
outer loop
vertex 9.375000 28.125000 0.000000
vertex 12.500000 46.875000 1.000000
vertex 9.375000 28.125000 1.000000
endloop
endfacet
endsolid placa
solid coldSide
facet normal 0.000000 1.000000 0.000000
outer loop
vertex 25.000000 75.000000 0.000000
vertex 0.000000 75.000000 0.000000
vertex 25.000000 75.000000 1.000000
endloop
endfacet
facet normal 0.000000 1.000000 0.000000
outer loop
vertex 25.000000 75.000000 1.000000
vertex 0.000000 75.000000 0.000000
vertex 0.000000 75.000000 1.000000
endloop
endfacet
endsolid coldSide
solid hotSide
facet normal 0.000000 -1.000000 0.000000
outer loop
vertex 0.000000 0.000000 0.000000
vertex 25.000000 0.000000 0.000000
vertex 0.000000 0.000000 1.000000
endloop
endfacet
facet normal 0.000000 -1.000000 0.000000
outer loop
vertex 0.000000 0.000000 1.000000
vertex 25.000000 0.000000 0.000000
vertex 25.000000 0.000000 1.000000
endloop
endfacet
endsolid hotSide
