solid Exported from Blender-3.0.1
facet normal 0.000000 0.000000 1.000000
outer loop
vertex 112.500000 137.500000 100.000000
vertex -87.500000 137.500000 100.000000
vertex -87.500000 -62.500000 100.000000
endloop
endfacet
facet normal 0.000000 0.000000 1.000000
outer loop
vertex 112.500000 137.500000 100.000000
vertex -87.500000 -62.500000 100.000000
vertex 112.500000 -62.500000 100.000000
endloop
endfacet
facet normal 0.000000 -1.000000 0.000000
outer loop
vertex 112.500000 -62.500000 -100.000000
vertex 112.500000 -62.500000 100.000000
vertex -87.500000 -62.500000 100.000000
endloop
endfacet
facet normal 0.000000 -1.000000 0.000000
outer loop
vertex 112.500000 -62.500000 -100.000000
vertex -87.500000 -62.500000 100.000000
vertex -87.500000 -62.500000 -100.000000
endloop
endfacet
facet normal -1.000000 0.000000 0.000000
outer loop
vertex -87.500000 -62.500000 -100.000000
vertex -87.500000 -62.500000 100.000000
vertex -87.500000 137.500000 100.000000
endloop
endfacet
facet normal -1.000000 0.000000 0.000000
outer loop
vertex -87.500000 -62.500000 -100.000000
vertex -87.500000 137.500000 100.000000
vertex -87.500000 137.500000 -100.000000
endloop
endfacet
facet normal 0.000000 0.000000 -1.000000
outer loop
vertex -87.500000 137.500000 -100.000000
vertex 112.500000 137.500000 -100.000000
vertex 112.500000 -62.500000 -100.000000
endloop
endfacet
facet normal 0.000000 0.000000 -1.000000
outer loop
vertex -87.500000 137.500000 -100.000000
vertex 112.500000 -62.500000 -100.000000
vertex -87.500000 -62.500000 -100.000000
endloop
endfacet
facet normal 1.000000 0.000000 0.000000
outer loop
vertex 112.500000 137.500000 -100.000000
vertex 112.500000 137.500000 100.000000
vertex 112.500000 -62.500000 100.000000
endloop
endfacet
facet normal 1.000000 0.000000 0.000000
outer loop
vertex 112.500000 137.500000 -100.000000
vertex 112.500000 -62.500000 100.000000
vertex 112.500000 -62.500000 -100.000000
endloop
endfacet
facet normal 0.000000 1.000000 0.000000
outer loop
vertex -87.500000 137.500000 -100.000000
vertex -87.500000 137.500000 100.000000
vertex 112.500000 137.500000 100.000000
endloop
endfacet
facet normal 0.000000 1.000000 0.000000
outer loop
vertex -87.500000 137.500000 -100.000000
vertex 112.500000 137.500000 100.000000
vertex 112.500000 137.500000 -100.000000
endloop
endfacet
endsolid Exported from Blender-3.0.1
